<?xml version="1.0" standalone="no"?>
<!DOCTYPE svg PUBLIC "-//W3C//DTD SVG 20010904//EN"
 "http://www.w3.org/TR/2001/REC-SVG-20010904/DTD/svg10.dtd">
<svg version="1.0" xmlns="http://www.w3.org/2000/svg"
 width="512.000000pt" height="512.000000pt" viewBox="0 0 512.000000 512.000000"
 preserveAspectRatio="xMidYMid meet">

<g transform="translate(0.000000,512.000000) scale(0.100000,-0.100000)"
fill="#000000" stroke="none">
<path d="M1941 5104 c-80 -21 -146 -61 -204 -124 l-52 -55 -73 15 c-131 26
-265 -14 -366 -110 -54 -51 -108 -139 -120 -196 -6 -26 -16 -34 -61 -53 -177
-74 -256 -273 -180 -455 34 -80 144 -171 230 -190 23 -5 36 -18 54 -51 13 -24
48 -67 77 -95 127 -120 317 -152 468 -78 l45 21 63 -28 c104 -47 242 -36 329
26 50 36 56 16 30 -107 -27 -127 -67 -242 -116 -330 -40 -71 -143 -187 -186
-210 -22 -11 -78 -14 -263 -14 -247 0 -273 -4 -317 -46 -15 -14 -111 -162
-215 -329 l-189 -304 -85 -1 -85 0 -113 151 c-138 183 -146 188 -302 189 -171
0 -222 -37 -253 -187 -70 -325 -70 -725 -2 -993 25 -97 89 -127 147 -70 34 34
34 19 -2 225 -19 106 -24 166 -24 330 0 195 7 270 42 443 l16 82 76 0 75 -1
110 -146 c61 -81 123 -156 138 -167 26 -19 43 -21 175 -21 137 0 149 2 179 23
21 15 99 130 229 337 l196 315 302 0 301 0 170 -171 c94 -94 182 -177 197
-185 41 -21 116 -17 162 9 31 17 56 51 125 164 47 78 89 144 92 148 4 3 58
-20 120 -50 103 -51 119 -56 166 -53 82 7 113 38 186 184 l62 124 210 0 210 0
260 -336 c143 -185 273 -345 288 -356 33 -24 91 -33 143 -24 29 6 59 29 139
107 l102 99 120 0 120 0 21 -110 c68 -344 48 -705 -58 -1021 -89 -268 -252
-516 -458 -694 -341 -298 -808 -479 -1387 -540 -765 -80 -1510 45 -2008 338
-274 162 -504 403 -638 669 -41 81 -59 98 -107 98 -34 0 -82 -48 -82 -81 0
-27 73 -169 133 -259 297 -447 804 -752 1467 -884 605 -121 1362 -91 1894 74
440 136 785 350 1022 633 223 265 353 562 411 937 23 155 24 491 0 640 -42
262 -60 309 -137 348 -40 20 -58 22 -196 22 -84 0 -165 -5 -180 -10 -15 -6
-72 -54 -126 -107 -93 -92 -99 -96 -113 -78 -7 11 -128 166 -267 344 -176 226
-264 330 -288 343 -32 17 -57 18 -296 16 l-262 -3 -43 -34 -42 -34 -22 27
c-89 112 -173 308 -197 459 -14 92 -5 112 37 79 78 -62 228 -74 333 -27 l61
27 48 -22 c110 -52 255 -50 365 6 65 33 149 112 179 169 18 33 31 46 54 51 51
11 119 50 162 94 173 173 105 476 -125 555 -30 11 -38 20 -57 72 -29 80 -55
121 -114 176 -57 53 -109 81 -188 102 -72 19 -123 19 -193 1 l-55 -14 -53 58
c-127 141 -328 177 -504 91 l-64 -32 -59 30 c-121 60 -268 60 -390 0 l-61 -30
-59 30 c-105 52 -200 63 -304 35z m212 -179 c19 -9 53 -32 75 -51 56 -48 95
-46 158 6 53 44 118 70 174 70 56 0 121 -26 174 -70 65 -54 102 -54 163 -1
138 123 333 78 414 -93 19 -41 51 -66 85 -66 8 0 38 12 67 27 65 34 171 38
227 9 81 -42 135 -118 147 -203 3 -27 12 -60 20 -75 13 -27 22 -31 94 -43 154
-24 197 -233 65 -311 -17 -10 -55 -21 -84 -25 -66 -9 -78 -19 -109 -89 -43
-99 -119 -157 -218 -167 -63 -7 -112 8 -180 54 -59 39 -81 41 -126 8 -19 -13
-44 -32 -56 -41 -60 -43 -172 -21 -221 44 -38 52 -52 61 -91 62 -25 0 -40 -8
-60 -31 -87 -102 -108 -121 -167 -150 -55 -28 -74 -32 -144 -32 -70 0 -89 4
-144 32 -59 29 -80 48 -167 150 -20 23 -35 31 -60 31 -39 -1 -55 -11 -88 -59
-27 -38 -90 -70 -138 -71 -45 0 -79 15 -126 55 -51 44 -79 44 -142 2 -68 -46
-117 -61 -180 -54 -99 10 -175 68 -218 167 -31 70 -43 80 -110 89 -103 14
-161 74 -161 166 0 86 59 157 143 170 72 12 81 16 94 43 8 15 17 48 20 75 11
84 64 158 142 200 61 33 164 30 232 -6 29 -15 61 -27 71 -27 29 0 71 37 88 78
26 63 90 119 164 143 37 12 132 4 173 -16z m302 -1332 c71 -18 188 -13 255 11
24 8 45 14 47 12 1 -1 14 -45 27 -98 47 -185 119 -333 223 -455 52 -61 54 -66
43 -94 -7 -16 -16 -29 -21 -29 -4 0 -58 25 -120 55 -121 60 -152 65 -214 36
-53 -24 -65 -38 -154 -188 -42 -69 -79 -126 -83 -127 -4 -1 -84 75 -178 169
-111 109 -169 173 -164 181 5 6 35 50 68 98 73 109 121 220 154 353 21 85 29
103 41 97 9 -4 43 -13 76 -21z"/>
<path d="M4576 4770 c-59 -18 -106 -83 -106 -147 0 -44 90 -322 120 -371 35
-58 83 -72 250 -72 132 0 150 2 190 23 33 16 51 34 68 67 21 42 23 55 20 201
-3 154 -3 156 -32 193 -16 21 -43 44 -60 51 -27 11 -384 67 -411 64 -5 0 -23
-5 -39 -9z m207 -185 c56 -8 117 -17 135 -20 l32 -6 0 -105 0 -105 -112 3
-111 3 -39 115 c-21 63 -38 118 -38 122 0 11 15 10 133 -7z"/>
<path d="M86 4667 c-25 -14 -48 -39 -63 -66 -21 -41 -23 -56 -23 -195 0 -171
12 -215 70 -256 50 -36 115 -37 271 -5 148 31 171 40 211 82 36 38 48 90 48
203 0 113 -12 165 -48 203 -50 53 -67 57 -254 57 -160 0 -176 -2 -212 -23z
m344 -236 c0 -77 -3 -90 -17 -95 -26 -8 -216 -46 -230 -46 -10 0 -13 30 -13
115 l0 115 130 0 130 0 0 -89z"/>
<path d="M4555 3821 c-22 -10 -72 -52 -111 -94 -119 -127 -174 -259 -174 -418
0 -106 17 -178 64 -272 58 -116 120 -153 217 -127 38 10 72 40 247 213 112
111 210 214 218 229 19 36 18 112 -2 151 -9 18 -76 92 -148 166 -168 171 -217
195 -311 152z m131 -570 c-202 -201 -188 -197 -228 -68 -46 152 -8 301 108
426 l59 64 118 -123 119 -123 -176 -176z"/>
<path d="M383 3733 c-50 -28 -259 -229 -277 -267 -25 -53 -21 -126 10 -171 45
-66 305 -355 333 -370 75 -38 163 -25 222 34 73 72 112 267 85 420 -27 149
-130 323 -213 357 -45 19 -122 17 -160 -3z m121 -186 c67 -88 104 -231 87
-335 -12 -69 -34 -135 -47 -139 -9 -3 -255 268 -278 305 -6 11 17 38 90 108
55 51 104 93 111 94 7 0 23 -15 37 -33z"/>
<path d="M1695 2547 c-156 -52 -277 -191 -315 -362 -16 -70 -14 -219 5 -288
37 -141 130 -264 243 -319 62 -31 74 -33 167 -33 91 0 105 3 159 30 194 98
303 356 251 597 -32 152 -131 290 -250 349 -75 37 -192 48 -260 26z"/>
<path d="M3229 2547 c-148 -42 -276 -195 -314 -375 -52 -241 57 -499 252 -598
53 -26 67 -29 158 -29 93 0 105 2 167 33 113 55 206 177 244 319 18 71 21 213
4 285 -49 212 -211 366 -394 375 -39 1 -92 -3 -117 -10z"/>
<path d="M2324 1436 c-229 -45 -450 -161 -597 -315 -81 -85 -102 -135 -102
-241 1 -70 5 -95 26 -140 34 -74 76 -120 141 -156 48 -26 62 -29 143 -29 50 0
158 8 240 19 207 26 563 26 770 0 83 -11 191 -19 240 -19 81 0 95 3 143 29 65
36 107 82 141 156 22 46 26 69 26 140 0 118 -28 173 -139 277 -133 124 -298
212 -495 265 -99 26 -428 34 -537 14z"/>
</g>
</svg>
