<?xml version="1.0" encoding="utf-8"?>
<svg version="1.1" id="Layer_1" xmlns="http://www.w3.org/2000/svg" xmlns:xlink="http://www.w3.org/1999/xlink" x="0px" y="0px"
	 viewBox="0 0 450 500" style="enable-background:new 0 0 450 500;" xml:space="preserve">
<style type="text/css">
	.st0{fill:url(#SVGID_1_);}
</style>
<g>
	<linearGradient id="SVGID_1_" gradientUnits="userSpaceOnUse" x1="225" y1="31.1516" x2="225" y2="420.826">
		<stop  offset="0" style="stop-color:#BB2649"/>
		<stop  offset="1" style="stop-color:#E2583E"/>
	</linearGradient>
	<path class="st0" d="M58.83,452.29l1.16-5.12l3.39,0.42c9.96,1.12,27.22-1.96,48.37-8.77l15.45-4.98l1.37,1.68
		c2.6,3.3,8.09,12.42,16.97,28.35c12.06,21.61,18.63,32.21,21.23,34.38c1.73,1.4,2.96,1.75,5.99,1.75c3.25,0,4.4-0.42,8.74-3.23
		c17.33-11.02,27.36-30.31,32.78-63.08c0.87-5.05,1.88-11.3,2.31-13.96l0.79-4.84l9.53,0.49c27.58,1.26,38.26,1.33,46.49,0.14
		c19.42-2.81,35.95-10.1,46.64-20.7c2.89-2.88,3.54-4,3.83-6.67c0.72-6.17-1.52-8.77-10.25-11.86
		c-13.36-4.63-25.7-10.74-50.39-24.98c-7.22-4.14-14.73-8.42-16.6-9.47c-2.6-1.47-3.39-2.25-3.03-3.09c0.29-0.7,1.8-4.91,3.39-9.47
		l2.89-8.21h9.75c43.1,0,81.65,16.07,107.43,44.91c19.13,21.33,30.03,44.07,34,70.87c1.13,7.58,1.22,20.55,0.49,31.84
		c34.6-42.42,52.21-97.63,47.81-150.32c-4.22-51.36-22.98-94.08-58.06-132.06c-10.77-11.54-14.1-13.81-20.98-13.81
		c-7.77,0-11.32,3.02-19.87,16.83c-6.99,11.44-19.54,27.94-24.09,31.94c-2.11,1.83-2.11,1.73-1.11-6.47
		c1.44-11.98,0.22-39.7-2.44-54.16c-7.99-44.34-28.2-83.61-59.5-115.22c-13.76-13.92-23.53-22.01-37.85-31.29
		C203.57-0.02,195.69-2.61,188.36,2.25c-6.44,4.32-7.77,7.01-9.55,20.39c-5.11,37.87-20.76,72.07-46.4,100.44
		c-9.99,11.22-18.32,18.23-39.07,33.23C38.06,196.56,6.09,252.23,0.65,317.93c-4.33,51.25,13.1,107.03,46.62,149.64
		c2.01,2.6,4.95,5.93,8.35,9.56C56.04,468.17,57.12,459.49,58.83,452.29z M122.86,280.37c4.98-2.81,8.59-2.81,11.19-0.14
		c3.83,4,12.56,20.98,25.2,48.84c5.99,13.19,11.05,25.33,11.05,26.45c0,1.47-3.39,5.05-6.43,6.81c-3.83,2.18-3.1,2.95-10.68-11.09
		c-12.06-22.31-26.13-45.12-34.44-55.85c-1.8-2.39-3.32-5.05-3.32-6.03C115.43,286.69,118.75,282.62,122.86,280.37z M52.62,422.46
		c7.94-5.82,17.4-13.96,24.26-20.77c11.33-11.37,16.89-20,16.89-26.24c0-8.49-5.41-20.42-16.82-37.05
		c-5.34-7.72-7.22-11.02-6.35-11.02c1.3,0,46.57,6.17,48.8,6.67c1.66,0.35,1.08-0.56,13.93,22.45c5.41,9.61,10.68,18.66,11.77,20.07
		c1.08,1.33,3.68,3.37,5.85,4.49c3.25,1.75,4.62,2.04,9.31,2.1c4.84,0,6.06-0.28,10.97-2.67c10.9-5.26,18.92-15.72,18.92-24.7
		c0-4.56-0.87-6.95-9.53-27.23c-3.1-7.3-4.48-11.37-4.04-11.79c0.36-0.35,14.51-10.53,31.33-22.59l30.61-21.89l0.22,3.16
		c0.65,8.56-3.18,24.98-11.55,49.75c-6.93,20.56-7.15,21.89-4.12,25.61c0.87,1.05,4.04,3.09,7.08,4.63
		c3.1,1.47,12.71,6.81,21.44,11.79c19.35,11.02,30.76,17.19,37.33,20.14l5.05,2.18l-4.33,1.89c-10.54,4.56-26.28,6.46-44.26,5.26
		c-6.14-0.42-16.53-0.77-23.1-0.84c-10.97-0.07-12.13,0.07-14.94,1.47c-3.9,2.03-6.93,5.68-8.37,10.24
		c-0.65,1.96-2.17,9.61-3.39,16.98c-3.61,21.75-5.99,30.45-11.26,40.35c-1.73,3.3-4.33,7.23-5.7,8.77c-2.45,2.74-2.53,2.81-3.61,1.4
		c-0.65-0.77-5.49-9.19-10.83-18.66c-15.31-27.37-20.36-34.8-26.21-38.87c-3.03-1.96-3.54-2.1-10.11-2.03
		c-6.64,0-7.8,0.28-21.59,4.63c-20.58,6.6-27,7.79-39.92,7.79c-6.35-0.07-12.06-0.42-14.44-1.05l-3.97-0.91L52.62,422.46z"/>
</g>
</svg>
