<?xml version="1.0" encoding="utf-8"?>
<svg version="1.1" id="Layer_1" xmlns="http://www.w3.org/2000/svg" xmlns:xlink="http://www.w3.org/1999/xlink" x="0px" y="0px"
	 viewBox="0 0 500 500" style="enable-background:new 0 0 500 500;" xml:space="preserve">
<path d="M499.67,88.71L411.29,0.33l-34.63,34.63c-37.22-22-80.63-34.63-126.99-34.63s-89.77,12.64-126.99,34.63L88.04,0.33
	L-0.33,88.71l34.63,34.63c-22,37.22-34.63,80.63-34.63,126.99c0,138.07,111.93,250,250,250s250-111.93,250-250
	c0-46.37-12.64-89.77-34.63-126.99L499.67,88.71z M270.41,317.42l-39.72,39.73L124.75,251.21l39.72-39.73l66.21,66.21l119.17-119.17
	l39.72,39.73L270.41,317.42z"/>
</svg>
